# xmcd CD database file
#
# Track frame offsets:
#	150
#	21738
#	47981
#	80565
#	98455
#	123640
#	148949
#	167413
#	192462
#	222773
#	256040
#	293000
#
# Disc length: 4246 seconds
#
# Revision: 1
# Processed by: cddbd v1.5.2PL0 Copyright (c) Steve Scherf et al.
# Submitted via: CDex 1.81
#
DISCID=af10940c
DTITLE=Tropical Jazz Big Band - 12-TheOriginals
DYEAR=2008
DGENRE=Jazz
TTITLE0=Descarga Tropical
TTITLE1=Obatala
TTITLE2=Mi Tierra Natal
TTITLE3=Epoca De Oro
TTITLE4=Snakeman's Shuffle
TTITLE5=Azul
TTITLE6=Dueno Del Solar
TTITLE7=Eddie Pal Monte
TTITLE8=Almost There
TTITLE9=Rendez-Vous
TTITLE10=Neo Booglogy
TTITLE11=Sussudio
EXTD=YEAR: 2008
EXTT0=
EXTT1=
EXTT2=
EXTT3=
EXTT4=
EXTT5=
EXTT6=
EXTT7=
EXTT8=
EXTT9=
EXTT10=
EXTT11=
PLAYORDER=
